<svg width="1084" height="875" viewBox="0 0 1084 875" fill="none" xmlns="http://www.w3.org/2000/svg">
<rect x="305.5" y="110.5" width="473" height="473" fill="#FFB8B8" stroke="black" stroke-width="27"/>
<path d="M542 222C517.277 222 493.11 229.331 472.554 243.066C451.998 256.801 435.976 276.324 426.515 299.165C417.054 322.005 414.579 347.139 419.402 371.386C424.225 395.634 436.13 417.907 453.612 435.388C471.093 452.87 493.366 464.775 517.614 469.598C541.861 474.421 566.995 471.946 589.835 462.485C612.676 453.024 632.199 437.002 645.934 416.446C659.669 395.89 667 371.723 667 347C667 330.585 663.767 314.33 657.485 299.165C651.203 283.999 641.996 270.219 630.388 258.612C618.781 247.004 605.001 237.797 589.835 231.515C574.67 225.233 558.415 222 542 222V222ZM542 247C549.532 247.049 557.036 247.93 564.375 249.625C562.202 254.53 558.853 258.823 554.625 262.125C551.875 264.25 548.875 266 545.875 267.875C536.378 272.551 528.37 279.779 522.75 288.75C516.593 301.582 513.92 315.808 515 330C515 347 515 357 503.125 365.875C486 379.25 459.875 371.75 443.625 365C442.563 359.058 442.019 353.036 442 347C442 320.478 452.536 295.043 471.289 276.289C490.043 257.536 515.478 247 542 247V247ZM454.5 394.5C462.668 396.623 471.062 397.756 479.5 397.875C493.62 398.263 507.455 393.857 518.75 385.375C540.125 368.625 540.125 347.125 540.125 329.875C539.177 319.891 540.768 309.829 544.75 300.625C548.368 295.699 553.188 291.783 558.75 289.25C562.724 286.928 566.564 284.382 570.25 281.625C578.018 275.489 584.05 267.432 587.75 258.25C605.337 267.248 619.865 281.254 629.5 298.5C611.625 301 586.25 306.875 581.25 330.125C580.121 335.68 579.535 341.332 579.5 347C579.905 353.336 578.656 359.668 575.875 365.375L574.625 367.5C566.5 381 557.375 396.375 569.75 417.5C571.25 420.125 572.875 422.625 574.5 425.125C577.827 428.968 580.07 433.628 581 438.625C568.706 444.044 555.435 446.894 542 447C524.045 446.91 506.446 441.988 491.05 432.751C475.653 423.513 463.028 410.3 454.5 394.5V394.5ZM603.625 426C601.463 421.009 598.826 416.237 595.75 411.75C594.375 409.75 593 407.75 591.75 405.625C586.875 397.125 588.625 393.125 596.5 380.625L597.75 378.5C602.649 369.151 604.978 358.669 604.5 348.125C604.487 343.933 604.864 339.748 605.625 335.625C607.625 326.5 627 324 639 323.125C643.85 341.981 643.047 361.848 636.69 380.251C630.333 398.655 618.704 414.782 603.25 426.625L603.625 426Z" fill="black"/>
<path d="M215.599 673.797L238.157 733.738L260.662 673.797H278.226V752H264.69V726.219L266.033 691.736L242.938 752H233.216L210.174 691.79L211.517 726.219V752H197.981V673.797H215.599ZM327.801 752C327.228 750.89 326.727 749.082 326.297 746.575C322.143 750.908 317.059 753.074 311.043 753.074C305.206 753.074 300.444 751.409 296.756 748.079C293.068 744.749 291.224 740.631 291.224 735.726C291.224 729.531 293.515 724.786 298.099 721.492C302.718 718.162 309.306 716.497 317.864 716.497H325.867V712.684C325.867 709.676 325.026 707.277 323.343 705.486C321.66 703.66 319.1 702.747 315.662 702.747C312.69 702.747 310.255 703.499 308.357 705.003C306.46 706.471 305.511 708.351 305.511 710.643H292.459C292.459 707.456 293.515 704.484 295.628 701.727C297.741 698.934 300.605 696.749 304.222 695.174C307.874 693.598 311.938 692.811 316.414 692.811C323.217 692.811 328.642 694.529 332.688 697.967C336.735 701.368 338.812 706.167 338.919 712.361V738.572C338.919 743.8 339.653 747.972 341.121 751.087V752H327.801ZM313.46 742.601C316.038 742.601 318.455 741.974 320.711 740.721C323.003 739.467 324.721 737.785 325.867 735.672V724.715H318.831C313.997 724.715 310.363 725.556 307.928 727.239C305.493 728.922 304.275 731.303 304.275 734.383C304.275 736.889 305.099 738.895 306.746 740.398C308.429 741.867 310.667 742.601 313.46 742.601ZM350.145 722.513C350.145 713.561 352.221 706.382 356.375 700.975C360.529 695.532 366.097 692.811 373.079 692.811C379.238 692.811 384.215 694.959 388.011 699.256V669.5H401.062V752H389.246L388.602 745.984C384.699 750.711 379.489 753.074 372.972 753.074C366.168 753.074 360.654 750.335 356.429 744.856C352.239 739.378 350.145 731.93 350.145 722.513ZM363.196 723.641C363.196 729.549 364.324 734.168 366.58 737.498C368.872 740.792 372.112 742.439 376.302 742.439C381.637 742.439 385.54 740.058 388.011 735.296V710.481C385.612 705.826 381.744 703.499 376.409 703.499C372.184 703.499 368.925 705.182 366.634 708.548C364.342 711.878 363.196 716.909 363.196 723.641ZM440.271 753.074C432 753.074 425.286 750.478 420.13 745.286C415.009 740.058 412.449 733.112 412.449 724.446V722.835C412.449 717.034 413.559 711.86 415.779 707.312C418.035 702.729 421.186 699.166 425.232 696.624C429.279 694.082 433.79 692.811 438.768 692.811C446.681 692.811 452.786 695.335 457.083 700.384C461.416 705.433 463.582 712.576 463.582 721.814V727.078H425.608C426.002 731.876 427.596 735.672 430.389 738.465C433.217 741.258 436.762 742.654 441.023 742.654C447.003 742.654 451.873 740.237 455.633 735.403L462.669 742.117C460.341 745.59 457.226 748.294 453.323 750.228C449.456 752.125 445.105 753.074 440.271 753.074ZM438.714 703.284C435.133 703.284 432.233 704.537 430.013 707.044C427.828 709.55 426.432 713.042 425.823 717.518H450.691V716.551C450.405 712.182 449.241 708.888 447.2 706.668C445.159 704.412 442.33 703.284 438.714 703.284ZM552.151 723.533C552.151 732.557 550.128 739.736 546.082 745.071C542.072 750.407 536.539 753.074 529.485 753.074C522.682 753.074 517.382 750.621 513.587 745.716L512.942 752H501.126V669.5H514.178V699.471C517.938 695.031 523.004 692.811 529.378 692.811C536.468 692.811 542.036 695.442 546.082 700.706C550.128 705.97 552.151 713.328 552.151 722.781V723.533ZM539.1 722.405C539.1 716.103 537.99 711.377 535.77 708.226C533.549 705.075 530.327 703.499 526.102 703.499C520.444 703.499 516.469 705.97 514.178 710.911V734.866C516.505 739.915 520.516 742.439 526.209 742.439C530.291 742.439 533.442 740.918 535.662 737.874C537.882 734.83 539.028 730.229 539.1 724.07V722.405ZM582.82 733.309L594.637 693.885H608.548L585.452 760.809C581.907 770.584 575.892 775.472 567.405 775.472C565.507 775.472 563.413 775.149 561.121 774.505V764.407L563.592 764.568C566.886 764.568 569.357 763.96 571.004 762.742C572.687 761.561 574.012 759.555 574.979 756.727L576.858 751.731L556.448 693.885H570.521L582.82 733.309ZM672.303 734.974L692.176 673.797H707.107L678.963 752H665.804L637.767 673.797H652.645L672.303 734.974ZM746.961 752C746.388 750.89 745.887 749.082 745.457 746.575C741.303 750.908 736.219 753.074 730.203 753.074C724.367 753.074 719.604 751.409 715.916 748.079C712.228 744.749 710.384 740.631 710.384 735.726C710.384 729.531 712.675 724.786 717.259 721.492C721.878 718.162 728.466 716.497 737.024 716.497H745.027V712.684C745.027 709.676 744.186 707.277 742.503 705.486C740.82 703.66 738.26 702.747 734.822 702.747C731.85 702.747 729.415 703.499 727.518 705.003C725.62 706.471 724.671 708.351 724.671 710.643H711.619C711.619 707.456 712.675 704.484 714.788 701.727C716.901 698.934 719.765 696.749 723.382 695.174C727.034 693.598 731.098 692.811 735.574 692.811C742.378 692.811 747.802 694.529 751.849 697.967C755.895 701.368 757.972 706.167 758.079 712.361V738.572C758.079 743.8 758.813 747.972 760.281 751.087V752H746.961ZM732.62 742.601C735.198 742.601 737.615 741.974 739.871 740.721C742.163 739.467 743.882 737.785 745.027 735.672V724.715H737.991C733.157 724.715 729.523 725.556 727.088 727.239C724.653 728.922 723.436 731.303 723.436 734.383C723.436 736.889 724.259 738.895 725.906 740.398C727.589 741.867 729.827 742.601 732.62 742.601ZM802.176 705.809C800.457 705.522 798.685 705.379 796.858 705.379C790.879 705.379 786.85 707.671 784.773 712.254V752H771.722V693.885H784.183L784.505 700.384C787.656 695.335 792.024 692.811 797.61 692.811C799.472 692.811 801.012 693.061 802.229 693.562L802.176 705.809ZM824.305 752H811.253V669.5H824.305V752ZM836.121 722.513C836.121 713.561 838.198 706.382 842.352 700.975C846.505 695.532 852.073 692.811 859.056 692.811C865.215 692.811 870.192 694.959 873.987 699.256V669.5H887.039V752H875.223L874.578 745.984C870.675 750.711 865.465 753.074 858.948 753.074C852.145 753.074 846.631 750.335 842.405 744.856C838.216 739.378 836.121 731.93 836.121 722.513ZM849.173 723.641C849.173 729.549 850.301 734.168 852.557 737.498C854.848 740.792 858.089 742.439 862.278 742.439C867.614 742.439 871.517 740.058 873.987 735.296V710.481C871.588 705.826 867.721 703.499 862.386 703.499C858.16 703.499 854.902 705.182 852.61 708.548C850.319 711.878 849.173 716.909 849.173 723.641Z" fill="black"/>
</svg>
