<svg width="1244" height="500" viewBox="0 0 1244 500" fill="none" xmlns="http://www.w3.org/2000/svg">
<rect x="13.5" y="13.5" width="1217" height="473" fill="#FFB8B8" stroke="black" stroke-width="27"/>
<path d="M556.672 312.141L615.172 143.25H644.703L568.766 348H544.859L469.062 143.25H498.453L556.672 312.141ZM755.656 348C754.156 345 752.938 339.656 752 331.969C739.906 344.531 725.469 350.812 708.688 350.812C693.688 350.812 681.359 346.594 671.703 338.156C662.141 329.625 657.359 318.844 657.359 305.812C657.359 289.969 663.359 277.688 675.359 268.969C687.453 260.156 704.422 255.75 726.266 255.75H751.578V243.797C751.578 234.703 748.859 227.484 743.422 222.141C737.984 216.703 729.969 213.984 719.375 213.984C710.094 213.984 702.312 216.328 696.031 221.016C689.75 225.703 686.609 231.375 686.609 238.031H660.453C660.453 230.438 663.125 223.125 668.469 216.094C673.906 208.969 681.219 203.344 690.406 199.219C699.688 195.094 709.859 193.031 720.922 193.031C738.453 193.031 752.188 197.438 762.125 206.25C772.062 214.969 777.219 227.016 777.594 242.391V312.422C777.594 326.391 779.375 337.5 782.938 345.75V348H755.656ZM712.484 328.172C720.641 328.172 728.375 326.062 735.688 321.844C743 317.625 748.297 312.141 751.578 305.391V274.172H731.188C699.312 274.172 683.375 283.5 683.375 302.156C683.375 310.312 686.094 316.688 691.531 321.281C696.969 325.875 703.953 328.172 712.484 328.172ZM891.922 219.188C887.984 218.531 883.719 218.203 879.125 218.203C862.062 218.203 850.484 225.469 844.391 240V348H818.375V195.844H843.688L844.109 213.422C852.641 199.828 864.734 193.031 880.391 193.031C885.453 193.031 889.297 193.688 891.922 195V219.188ZM944.234 348H918.219V132H944.234V348ZM979.672 270.656C979.672 247.312 985.203 228.562 996.266 214.406C1007.33 200.156 1021.81 193.031 1039.72 193.031C1057.53 193.031 1071.64 199.125 1082.05 211.312V132H1108.06V348H1084.16L1082.89 331.688C1072.48 344.438 1058 350.812 1039.44 350.812C1021.81 350.812 1007.42 343.594 996.266 329.156C985.203 314.719 979.672 295.875 979.672 272.625V270.656ZM1005.69 273.609C1005.69 290.859 1009.25 304.359 1016.38 314.109C1023.5 323.859 1033.34 328.734 1045.91 328.734C1062.41 328.734 1074.45 321.328 1082.05 306.516V236.625C1074.27 222.281 1062.31 215.109 1046.19 215.109C1033.44 215.109 1023.5 220.031 1016.38 229.875C1009.25 239.719 1005.69 254.297 1005.69 273.609Z" fill="black"/>
<path d="M250 125C225.277 125 201.11 132.331 180.554 146.066C159.998 159.801 143.976 179.324 134.515 202.165C125.054 225.005 122.579 250.139 127.402 274.386C132.225 298.634 144.13 320.907 161.612 338.388C179.093 355.87 201.366 367.775 225.614 372.598C249.861 377.421 274.995 374.946 297.835 365.485C320.676 356.024 340.199 340.002 353.934 319.446C367.669 298.89 375 274.723 375 250C375 233.585 371.767 217.33 365.485 202.165C359.203 186.999 349.996 173.219 338.388 161.612C326.781 150.004 313.001 140.797 297.835 134.515C282.67 128.233 266.415 125 250 125V125ZM250 150C257.532 150.049 265.036 150.93 272.375 152.625C270.202 157.53 266.853 161.823 262.625 165.125C259.875 167.25 256.875 169 253.875 170.875C244.378 175.551 236.37 182.779 230.75 191.75C224.593 204.582 221.92 218.808 223 233C223 250 223 260 211.125 268.875C194 282.25 167.875 274.75 151.625 268C150.563 262.058 150.019 256.036 150 250C150 223.478 160.536 198.043 179.289 179.289C198.043 160.536 223.478 150 250 150V150ZM162.5 297.5C170.668 299.623 179.062 300.756 187.5 300.875C201.62 301.263 215.455 296.857 226.75 288.375C248.125 271.625 248.125 250.125 248.125 232.875C247.177 222.891 248.768 212.829 252.75 203.625C256.368 198.699 261.188 194.783 266.75 192.25C270.724 189.928 274.564 187.382 278.25 184.625C286.018 178.489 292.05 170.432 295.75 161.25C313.337 170.248 327.865 184.254 337.5 201.5C319.625 204 294.25 209.875 289.25 233.125C288.121 238.68 287.535 244.332 287.5 250C287.905 256.336 286.656 262.668 283.875 268.375L282.625 270.5C274.5 284 265.375 299.375 277.75 320.5C279.25 323.125 280.875 325.625 282.5 328.125C285.827 331.968 288.07 336.628 289 341.625C276.706 347.044 263.435 349.894 250 350C232.045 349.91 214.446 344.988 199.05 335.751C183.653 326.513 171.028 313.3 162.5 297.5V297.5ZM311.625 329C309.463 324.009 306.826 319.237 303.75 314.75C302.375 312.75 301 310.75 299.75 308.625C294.875 300.125 296.625 296.125 304.5 283.625L305.75 281.5C310.649 272.151 312.978 261.669 312.5 251.125C312.487 246.933 312.864 242.748 313.625 238.625C315.625 229.5 335 227 347 226.125C351.85 244.981 351.047 264.848 344.69 283.251C338.333 301.655 326.704 317.782 311.25 329.625L311.625 329Z" fill="black"/>
</svg>
