<svg width="930" height="250" viewBox="0 0 930 250" fill="none" xmlns="http://www.w3.org/2000/svg">
<rect width="930" height="250" fill="white"/>
<rect x="9.5" y="9.5" width="231" height="231" fill="white" stroke="#3742FA" stroke-width="19"/>
<path d="M125 191.667C161.819 191.667 191.667 161.819 191.667 125C191.667 88.181 161.819 58.3333 125 58.3333C88.1809 58.3333 58.3333 88.181 58.3333 125C58.3333 161.819 88.1809 191.667 125 191.667Z" stroke="#3742FA" stroke-width="17" stroke-linecap="round" stroke-linejoin="round"/>
<path d="M153.267 96.7334L139.133 139.133L96.7334 153.267L110.867 110.867L153.267 96.7334Z" stroke="#3742FA" stroke-width="17" stroke-linecap="round" stroke-linejoin="round"/>
<path d="M388.88 148.8C386 157.344 381.056 163.92 374.048 168.528C367.136 173.136 358.976 175.44 349.568 175.44C340.448 175.44 332.528 173.472 325.808 169.536C319.088 165.6 313.904 159.936 310.256 152.544C306.608 145.152 304.784 136.464 304.784 126.48C304.784 116.496 306.608 107.808 310.256 100.416C313.904 93.024 319.088 87.36 325.808 83.424C332.528 79.488 340.4 77.52 349.424 77.52C358.928 77.52 366.896 79.488 373.328 83.424C379.856 87.36 384.56 93.168 387.44 100.848L372.896 107.328C370.976 101.664 368.192 97.536 364.544 94.944C360.896 92.256 356.144 90.912 350.288 90.912C341.36 90.912 334.208 94.08 328.832 100.416C323.552 106.656 320.912 115.344 320.912 126.48C320.912 137.712 323.456 146.448 328.544 152.688C333.632 158.928 340.688 162.048 349.712 162.048C355.856 162.048 360.992 160.512 365.12 157.44C369.344 154.368 372.368 149.856 374.192 143.904L388.88 148.8ZM445.126 100.56C453.094 100.56 459.574 102.864 464.566 107.472C469.654 112.08 472.198 118.704 472.198 127.344V174H456.79V132.24C456.79 119.568 451.654 113.232 441.382 113.232C436.006 113.232 431.398 115.104 427.558 118.848C423.718 122.592 421.798 128.304 421.798 135.984V174H406.39V69.6H421.798V113.52C424.198 109.104 427.366 105.84 431.302 103.728C435.334 101.616 439.942 100.56 445.126 100.56ZM557.754 163.92C559.866 163.92 561.642 163.728 563.082 163.344L562.074 173.712C559.482 174.864 556.506 175.44 553.146 175.44C549.018 175.44 545.706 174.624 543.21 172.992C540.81 171.36 539.226 168.624 538.458 164.784C536.25 168.144 532.986 170.784 528.666 172.704C524.346 174.528 519.498 175.44 514.122 175.44C507.114 175.44 501.45 173.808 497.13 170.544C492.81 167.28 490.65 162.624 490.65 156.576C490.65 150.912 493.002 146.16 497.706 142.32C502.41 138.384 509.418 135.6 518.73 133.968L537.018 130.8V126.912C537.018 122.496 535.722 119.04 533.13 116.544C530.538 113.952 526.938 112.656 522.33 112.656C512.826 112.656 506.634 116.976 503.754 125.616L491.802 119.28C493.53 113.52 497.034 108.96 502.314 105.6C507.69 102.24 514.266 100.56 522.042 100.56C531.354 100.56 538.746 102.72 544.218 107.04C549.69 111.36 552.426 117.696 552.426 126.048V158.592C552.426 160.416 552.81 161.76 553.578 162.624C554.442 163.488 555.834 163.92 557.754 163.92ZM517.434 163.776C522.618 163.776 527.178 162.528 531.114 160.032C535.05 157.536 537.018 154.224 537.018 150.096V141.456L521.322 144.624C516.33 145.584 512.634 146.928 510.234 148.656C507.834 150.384 506.634 152.688 506.634 155.568C506.634 158.256 507.546 160.32 509.37 161.76C511.29 163.104 513.978 163.776 517.434 163.776ZM616.407 100.56C624.375 100.56 630.855 102.864 635.847 107.472C640.935 112.08 643.479 118.704 643.479 127.344V174H628.071V132.24C628.071 119.568 622.935 113.232 612.663 113.232C607.287 113.232 602.679 115.104 598.839 118.848C594.999 122.496 593.079 128.16 593.079 135.84V174H577.671V102H591.351L592.071 113.952C594.471 109.44 597.783 106.08 602.007 103.872C606.231 101.664 611.031 100.56 616.407 100.56ZM708.731 162.768C716.027 162.768 721.691 164.4 725.723 167.664C729.755 170.928 731.771 175.44 731.771 181.2C731.771 186.096 730.139 190.32 726.875 193.872C723.707 197.424 719.291 200.16 713.627 202.08C708.059 204 701.771 204.96 694.763 204.96C683.339 204.96 674.747 203.28 668.987 199.92C663.323 196.56 660.491 192.096 660.491 186.528C660.491 183.264 661.595 180.384 663.803 177.888C666.107 175.488 669.275 173.76 673.307 172.704C670.235 171.264 667.787 169.44 665.963 167.232C664.139 164.928 663.227 162.192 663.227 159.024C663.227 152.016 666.971 147.216 674.459 144.624C670.811 142.512 668.027 139.776 666.107 136.416C664.283 133.056 663.371 129.216 663.371 124.896C663.371 120.096 664.667 115.872 667.259 112.224C669.851 108.48 673.499 105.6 678.203 103.584C683.003 101.568 688.475 100.56 694.619 100.56C699.899 100.56 704.747 101.328 709.163 102.864C710.507 97.584 712.907 93.6 716.363 90.912C719.915 88.128 724.571 86.784 730.331 86.88L732.923 98.832C728.315 98.736 724.571 99.312 721.691 100.56C718.907 101.808 716.987 103.68 715.931 106.176C719.099 108.384 721.547 111.072 723.275 114.24C725.003 117.408 725.867 120.96 725.867 124.896C725.867 132.288 722.987 138.192 717.227 142.608C711.563 147.024 704.027 149.232 694.619 149.232C690.203 149.232 686.219 148.8 682.667 147.936C680.267 148.512 678.491 149.472 677.339 150.816C676.283 152.064 675.755 153.744 675.755 155.856C675.755 158.064 676.523 159.792 678.059 161.04C679.691 162.192 681.899 162.768 684.683 162.768H708.731ZM694.619 111.36C690.203 111.36 686.507 112.656 683.531 115.248C680.555 117.744 679.067 120.96 679.067 124.896C679.067 128.928 680.555 132.24 683.531 134.832C686.507 137.328 690.203 138.576 694.619 138.576C699.131 138.576 702.827 137.328 705.707 134.832C708.683 132.24 710.171 128.928 710.171 124.896C710.171 120.864 708.683 117.6 705.707 115.104C702.827 112.608 699.131 111.36 694.619 111.36ZM696.203 193.44C703.211 193.44 708.683 192.432 712.619 190.416C716.555 188.4 718.523 185.904 718.523 182.928C718.523 180.528 717.563 178.704 715.643 177.456C713.723 176.208 710.507 175.584 705.995 175.584H686.555C682.235 175.584 678.971 176.256 676.763 177.6C674.651 178.944 673.595 180.816 673.595 183.216C673.595 186.48 675.467 188.976 679.211 190.704C683.051 192.528 688.715 193.44 696.203 193.44ZM810.929 135.84C810.929 138.624 810.737 141.264 810.353 143.76H757.649C758.513 150.096 760.769 154.944 764.417 158.304C768.065 161.568 772.769 163.2 778.529 163.2C783.233 163.2 787.121 162.384 790.193 160.752C793.361 159.024 795.521 156.576 796.673 153.408L809.489 158.736C804.113 169.872 793.793 175.44 778.529 175.44C767.201 175.44 758.321 172.128 751.889 165.504C745.553 158.88 742.385 149.712 742.385 138C742.385 126.192 745.457 117.024 751.601 110.496C757.745 103.872 766.385 100.56 777.521 100.56C788.081 100.56 796.289 103.776 802.145 110.208C808.001 116.64 810.929 125.184 810.929 135.84ZM777.521 112.8C771.953 112.8 767.441 114.432 763.985 117.696C760.625 120.96 758.513 125.712 757.649 131.952H796.529C795.761 125.904 793.697 121.2 790.337 117.84C787.073 114.48 782.801 112.8 777.521 112.8ZM856.297 175.44C849.001 175.44 842.521 174.192 836.857 171.696C831.289 169.2 827.065 165.408 824.185 160.32L834.553 151.392C836.377 155.52 839.209 158.544 843.049 160.464C846.889 162.384 851.497 163.344 856.873 163.344C861.769 163.344 865.561 162.576 868.249 161.04C870.937 159.408 872.281 157.296 872.281 154.704C872.281 152.4 871.033 150.576 868.537 149.232C866.041 147.792 861.721 146.448 855.577 145.2C844.921 143.184 837.433 140.496 833.113 137.136C828.793 133.776 826.633 129.024 826.633 122.88C826.633 118.944 827.833 115.296 830.233 111.936C832.633 108.48 836.089 105.744 840.601 103.728C845.209 101.616 850.633 100.56 856.873 100.56C864.841 100.56 871.225 101.904 876.025 104.592C880.825 107.184 884.521 111.264 887.113 116.832L876.169 124.896C874.441 120.672 871.993 117.6 868.825 115.68C865.753 113.664 861.817 112.656 857.017 112.656C852.697 112.656 849.097 113.568 846.217 115.392C843.433 117.12 842.041 119.136 842.041 121.44C842.041 124.032 843.289 126.096 845.785 127.632C848.377 129.168 853.033 130.56 859.753 131.808C869.929 133.632 877.129 136.224 881.353 139.584C885.577 142.944 887.689 147.648 887.689 153.696C887.689 160.128 884.905 165.36 879.337 169.392C873.769 173.424 866.089 175.44 856.297 175.44Z" fill="#3742FA"/>
</svg>
